<?xml version="1.0" encoding="UTF-8"?>
<!DOCTYPE svg  PUBLIC '-//W3C//DTD SVG 1.1//EN'  'http://www.w3.org/Graphics/SVG/1.1/DTD/svg11.dtd'>
<svg enable-background="new 0 0 32.2 30.9" version="1.1" viewBox="0 0 32.2 30.9" xml:space="preserve" xmlns="http://www.w3.org/2000/svg" xmlns:xlink="http://www.w3.org/1999/xlink">
<symbol id="ar" viewBox="0.4 -30.41 25.814 30.91">
	<g clip-rule="evenodd" fill-rule="evenodd">
					<linearGradient id="ai" x1="16336" x2="16338" y1="-16330" y2="-16330" gradientTransform="matrix(-1 0 0 -1 16352 -16352)" gradientUnits="userSpaceOnUse">
					<stop stop-color="#D39825" offset="0"/>
					<stop stop-color="#CF9524" offset=".1765"/>
					<stop stop-color="#C48D22" offset=".3647"/>
					<stop stop-color="#B07F1F" offset=".5608"/>
					<stop stop-color="#956B1A" offset=".7608"/>
					<stop stop-color="#725214" offset=".9608"/>
					<stop stop-color="#6B4D12" offset="1"/>
				</linearGradient>
				<path d="m14-20.351c0.066 0.267 0.434 0.483 1.1 0.65 0.333 0.1 0.667 0.167 1 0.2v-1.499c-0.034-0.566-0.017-1.5 0.05-2.8-0.3-0.333-0.667-0.5-1.1-0.5-0.3 0-0.55 0.117-0.75 0.35-0.2 0.267-0.3 0.55-0.3 0.85v2.749z" fill="url(#ai)"/>
					<linearGradient id="aj" x1="16330" x2="16340" y1="-16327" y2="-16327" gradientTransform="matrix(-1 0 0 -1 16352 -16352)" gradientUnits="userSpaceOnUse">
					<stop stop-color="#D39825" offset="0"/>
					<stop stop-color="#CF9524" offset=".1765"/>
					<stop stop-color="#C48D22" offset=".3647"/>
					<stop stop-color="#B07F1F" offset=".5608"/>
					<stop stop-color="#956B1A" offset=".7608"/>
					<stop stop-color="#725214" offset=".9608"/>
					<stop stop-color="#6B4D12" offset="1"/>
				</linearGradient>
				<path d="m14-23.5c0.066 0 0.217-0.1 0.45-0.3 0.267-0.2 0.467-0.3 0.6-0.3 0.2-0.033 0.567 0.067 1.1 0.3l0.1 0.9 2.9-0.15c1.333-0.067 2.05-0.217 2.15-0.45 0.067-0.466-0.267-0.667-1-0.6l0.45-0.05c0.233 0 0.367-0.1 0.4-0.3 0.034-0.233-0.067-0.467-0.3-0.7-0.2-0.2-0.483-0.283-0.85-0.25l-0.45 0.1c0.428-0.111 0.578-0.294 0.45-0.55-0.167-0.433-0.483-0.616-0.95-0.55-0.566 0.2-1.583 0.367-3.05 0.5-0.867 0.1-1.45 0.217-1.75 0.35-0.434 0.133-0.717 0.35-0.85 0.65-0.1 0.3-0.033 0.633 0.2 1 0.133 0.166 0.267 0.299 0.4 0.4z" fill="url(#aj)"/>
				<g fill="#8A670D">
					<path d="m16-25.9c-0.867 0.1-1.45 0.217-1.75 0.35-0.434 0.133-0.717 0.35-0.85 0.65v0.35c0.067-0.233 0.367-0.367 0.9-0.4 1.9-0.2 3.083-0.417 3.55-0.65 0.5-0.2 1.133-0.3 1.9-0.3 0.1 0.033 0.184 0.133 0.25 0.3 0.066-0.066 0.066-0.15 0-0.25-0.167-0.433-0.483-0.616-0.95-0.55-0.567 0.2-1.583 0.366-3.05 0.5z"/>
					<path d="m20.1-24.601c0.367-0.2 0.583-0.05 0.65 0.45 0.233 0 0.367-0.1 0.4-0.3 0.034-0.233-0.067-0.467-0.3-0.7-0.167-0.167-0.433-0.25-0.8-0.25l-0.05 0.201c-0.066 0.133-0.233 0.283-0.5 0.45s-0.434 0.25-0.5 0.25l0.3 0.05c0.333 0 0.6-0.05 0.8-0.151z"/>
					<path d="m20.75-24.101c0.033 0.134 0.017 0.233-0.05 0.3-0.033 0-0.15 0.066-0.35 0.2l-0.25 0.15 0.7-0.15c0.134 0 0.25 0.083 0.35 0.25l0.15-0.15c0.033-0.333-0.15-0.533-0.55-0.6z"/>
				</g>
					<linearGradient id="ak" x1="16340" x2="16343" y1="-16327" y2="-16327" gradientTransform="matrix(-1 0 0 -1 16352 -16352)" gradientUnits="userSpaceOnUse">
					<stop stop-color="#D39825" offset="0"/>
					<stop stop-color="#CF9524" offset=".1765"/>
					<stop stop-color="#C48D22" offset=".3647"/>
					<stop stop-color="#B07F1F" offset=".5608"/>
					<stop stop-color="#956B1A" offset=".7608"/>
					<stop stop-color="#725214" offset=".9608"/>
					<stop stop-color="#6B4D12" offset="1"/>
				</linearGradient>
				<path d="m11.95-21.8l0.05-5.4c-0.333-0.4-0.733-0.6-1.2-0.6-0.3 0-0.566 0.15-0.8 0.45-0.2 0.3-0.3 0.65-0.3 1.05v3.45c0.066 0.333 0.467 0.6 1.2 0.8 0.367 0.133 0.717 0.216 1.05 0.25z" fill="url(#ak)"/>
					<linearGradient id="al" x1="16334" x2="16345" y1="-16324" y2="-16324" gradientTransform="matrix(-1 0 0 -1 16352 -16352)" gradientUnits="userSpaceOnUse">
					<stop stop-color="#D39825" offset="0"/>
					<stop stop-color="#CF9524" offset=".1765"/>
					<stop stop-color="#C48D22" offset=".3647"/>
					<stop stop-color="#B07F1F" offset=".5608"/>
					<stop stop-color="#956B1A" offset=".7608"/>
					<stop stop-color="#725214" offset=".9608"/>
					<stop stop-color="#6B4D12" offset="1"/>
				</linearGradient>
				<path d="m16.45-27.55l0.45-0.05c0.233 0 0.383-0.133 0.45-0.4 0.033-0.267-0.083-0.55-0.35-0.85-0.2-0.233-0.483-0.333-0.85-0.3l-0.55 0.1c0.466-0.133 0.633-0.367 0.5-0.7-0.067-0.2-0.217-0.367-0.45-0.5-0.2-0.133-0.4-0.183-0.6-0.15-0.8 0.267-1.883 0.483-3.25 0.65-0.9 0.1-1.533 0.233-1.9 0.4-0.433 0.167-0.716 0.45-0.85 0.85-0.133 0.367-0.066 0.767 0.2 1.2 0.133 0.2 0.283 0.367 0.45 0.5 0.066 0 0.233-0.133 0.5-0.4 0.267-0.233 0.467-0.35 0.6-0.35 0.233-0.034 0.634 0.083 1.2 0.35v1.25l3.2-0.3c1.4-0.066 2.15-0.25 2.25-0.55 0.1-0.567-0.233-0.817-1-0.75z" fill="url(#al)"/>
				<g fill="#8A670D">
					<path d="m14.8-28.351l-0.7 0.1 0.5 0.05c0.4 0.033 0.75 0.017 1.05-0.05 0.267-0.066 0.534-0.183 0.8-0.35 0.167-0.066 0.316 0.017 0.45 0.25l0.3 0.6c0.267-0.267 0.2-0.633-0.2-1.1-0.2-0.267-0.583-0.366-1.15-0.3l-0.05 0.151c-0.2 0.267-0.316 0.417-0.35 0.45-0.134 0.1-0.35 0.166-0.65 0.199z"/>
					<path d="m17.45-26.8c0.066-0.367-0.134-0.617-0.6-0.75-0.3 0.433-0.65 0.667-1.05 0.7l-0.7 0.1 0.55 0.1c0.4 0.033 0.717 0 0.95-0.1 0.367-0.2 0.617-0.167 0.75 0.1l0.1-0.15z"/>
					<path d="m9.15-27.55c0-0.534 0.25-0.883 0.75-1.05 0.8-0.2 1.967-0.466 3.5-0.8 1.133-0.4 1.867-0.5 2.2-0.3 0.3 0.167 0.4 0.333 0.3 0.5 0.2-0.134 0.267-0.317 0.2-0.55-0.067-0.2-0.217-0.367-0.45-0.5-0.2-0.133-0.4-0.183-0.6-0.15-0.8 0.267-1.883 0.483-3.25 0.65-0.9 0.1-1.533 0.233-1.9 0.4-0.433 0.167-0.716 0.45-0.85 0.85-0.067 0.233-0.033 0.55 0.1 0.95z"/>
				</g>
				<linearGradient id="am" x1="-2106.3" x2="-2087.1" y1="-13440" y2="-13440" gradientTransform="matrix(.3068 -.9518 .9518 .3068 13449 2114.2)" gradientUnits="userSpaceOnUse">
				<stop stop-color="#F4D935" offset="0"/>
				<stop stop-color="#D1B928" offset="1"/>
			</linearGradient>
			<path d="m16.8-1.601c3.134-0.433 5.067-0.65 5.8-0.65 1.1 0 1.933-0.216 2.5-0.65 0.367-0.3 0.65-0.767 0.85-1.4 0.1-0.434 0.167-2.333 0.2-5.7 0.034-3.066 0.034-5.017 0-5.85v-1.45c-0.033-0.5-0.183-0.95-0.45-1.35-0.267-0.434-1.167-1.184-2.7-2.25-1.333-0.967-2.3-1.6-2.9-1.9-1.7-0.934-2.967-1.4-3.8-1.4-2.433 0.3-4.3 0.45-5.6 0.45-0.767 0.034-2.2 0.2-4.3 0.5-2.133 0.3-3.4 0.483-3.8 0.55-0.7 0.1-1.167 0.4-1.4 0.9-0.367 0.667-0.567 2.017-0.6 4.05-0.133 3.233-0.2 5.6-0.2 7.1 0.034 2.667 0.416 4.251 1.15 4.751 0.867 0.633 2.4 1.533 4.6 2.7 2.534 1.4 4.15 2.116 4.85 2.15 0.934 0.033 2.867-0.15 5.8-0.551z" fill="url(#am)"/>
				<linearGradient id="an" x1="-2369.1" x2="-2352.1" y1="-12875" y2="-12875" gradientTransform="matrix(.3574 -.934 .934 .3574 12890 2382.1)" gradientUnits="userSpaceOnUse">
				<stop stop-color="#BEA823" offset="0"/>
				<stop stop-color="#BAA422" offset=".3725"/>
				<stop stop-color="#AE9A20" offset=".7725"/>
				<stop stop-color="#A3901F" offset="1"/>
			</linearGradient>
			<path d="m25.95-4.3c0.1-0.5 0.15-1.367 0.15-2.6 0.133-4.333 0.15-7.316 0.05-8.95v-1.45c-0.033-0.5-0.183-0.95-0.45-1.35-0.267-0.434-1.167-1.184-2.7-2.25-1.333-0.967-2.3-1.6-2.9-1.9-0.267-0.167-0.9-0.434-1.9-0.8s-1.634-0.566-1.9-0.6c0.3 0.6 0.45 1.316 0.45 2.15l-0.1 14 0.1 0.15c0.167 0.2 1.066 0.7 2.7 1.5 1.866 0.9 3.05 1.516 3.55 1.85 1.4 0.9 2.15 1.4 2.25 1.5 0.3-0.301 0.533-0.717 0.7-1.25z" fill="url(#an)"/>
			<path d="m19.85-6.25c-1.9-0.9-2.933-1.45-3.1-1.65-0.934 0.066-3.85 0.366-8.75 0.9-3.733 0.4-6.05 0.567-6.95 0.5 0.167 0.267 0.333 0.467 0.5 0.6 0.867 0.633 2.4 1.533 4.6 2.7 2.534 1.4 4.15 2.116 4.85 2.15 2.3 0.1 6.167-0.3 11.6-1.2 1.4-0.2 2.283-0.466 2.65-0.8-0.367-0.367-0.883-0.767-1.55-1.2-0.5-0.3-1.783-0.967-3.85-2z" fill="#F4D935"/>
					<radialGradient id="ao" cx="8.0498" cy="-17.351" r="3.25" gradientTransform="matrix(1 0 0 -1.8538 0 -49.516)" gradientUnits="userSpaceOnUse">
					<stop stop-opacity=".3765" offset=".2157"/>
					<stop stop-opacity="0" offset=".8667"/>
				</radialGradient>
				<path d="m8-16.851c0.467-0.033 1.566-0.366 3.3-1-0.066-1.566-0.417-2.883-1.05-3.95s-1.367-1.6-2.2-1.6c-0.9 0-1.667 0.583-2.3 1.75-0.633 1.2-0.95 2.633-0.95 4.3v0.25c1.266 0.234 2.333 0.317 3.2 0.25z" fill="url(#ao)"/>
					<linearGradient id="ap" x1="-3093.5" x2="-3089.7" y1="-10694" y2="-10694" gradientTransform="matrix(.5365 -.8439 .8439 .5365 10690 3110)" gradientUnits="userSpaceOnUse">
					<stop stop-color="#F4D935" offset="0"/>
					<stop stop-color="#D1B928" offset="1"/>
				</linearGradient>
				<path d="m4.25-16.95c0.967 0.6 1.566 0.95 1.8 1.05 0.733 0.367 1.367 0.566 1.9 0.6 0.9 0.033 1.65-0.284 2.25-0.95 0.533-0.566 0.75-1.1 0.65-1.6-0.1-0.466-0.433-0.866-1-1.2-0.6-0.367-1.35-0.55-2.25-0.55-1.534 0-2.9 0.333-4.1 1-0.4 0.233-0.517 0.483-0.35 0.75 0.133 0.233 0.5 0.533 1.1 0.9z" fill="url(#ap)"/>
					<path d="m6.45-15.7c0.366 0.167 0.75 0.283 1.15 0.35 0.267-0.066 0.517-0.183 0.75-0.35 0.533-0.333 0.867-0.567 1-0.7-0.633 0.333-1.367 0.55-2.2 0.65l-0.7 0.05z" fill="#9F7626"/>
					<path d="m3.9-17.2l0.85 0.55c0.566-0.2 1-0.4 1.3-0.6l0.85-0.6c-1.2 0.434-2.183 0.65-2.95 0.65h-0.05z" fill="#9F7626"/>
					<path d="m7.35-16.55l0.75-0.65c-0.933 0.4-1.85 0.667-2.75 0.8l-0.15 0.05 0.8 0.45c0.633-0.234 1.083-0.451 1.35-0.65z" fill="#9F7626"/>
					<path d="m10.85-17.851c-0.1-0.466-0.433-0.866-1-1.2-0.6-0.367-1.35-0.55-2.25-0.55-1.534 0-2.9 0.333-4.1 1-0.267 0.167-0.4 0.333-0.4 0.5 0.3 0 0.8-0.133 1.5-0.4 1.7-0.7 3.2-0.767 4.5-0.2 0.966 0.433 1.533 0.917 1.7 1.45l0.05-0.6z" fill="#BEA71D"/>
				<path d="m19.65-15.3c0-0.5-0.1-0.917-0.3-1.25-0.233-0.333-0.5-0.5-0.8-0.5s-0.55 0.167-0.75 0.5c-0.233 0.333-0.35 0.75-0.35 1.25 0 0.466 0.116 0.867 0.35 1.2 0.2 0.333 0.45 0.5 0.75 0.5s0.567-0.167 0.8-0.5c0.2-0.334 0.3-0.734 0.3-1.2z" fill="#978715"/>
					<linearGradient id="aq" x1="511.73" x2="514.68" y1="-16803" y2="-16803" gradientTransform="matrix(-.0592 -.9982 .9982 -.0592 16822 -498.51)" gradientUnits="userSpaceOnUse">
					<stop stop-color="#5F4E29" offset="0"/>
					<stop stop-color="#271D09" offset=".8588"/>
				</linearGradient>
				<path d="m19.25-15.351c0-0.333-0.1-0.633-0.3-0.9-0.167-0.233-0.384-0.35-0.65-0.35-0.233 0-0.45 0.117-0.65 0.35-0.167 0.233-0.25 0.534-0.25 0.9 0 0.367 0.083 0.684 0.25 0.95 0.167 0.233 0.383 0.35 0.65 0.35s0.483-0.117 0.65-0.35c0.2-0.266 0.3-0.583 0.3-0.95z" fill="url(#aq)"/>
				<path d="m26.1-11.45c0-0.467-0.067-0.85-0.2-1.15-0.133-0.333-0.3-0.5-0.5-0.5s-0.367 0.167-0.5 0.5c-0.167 0.333-0.25 0.717-0.25 1.15s0.083 0.816 0.25 1.15c0.133 0.3 0.3 0.45 0.5 0.45 0.467-1e-3 0.7-0.534 0.7-1.6z" fill="#978715"/>
					<linearGradient id="z" x1="544.64" x2="547.4" y1="-16829" y2="-16829" gradientTransform="matrix(-.0635 -.998 .998 -.0635 16855 -535.75)" gradientUnits="userSpaceOnUse">
					<stop stop-color="#5F4E29" offset="0"/>
					<stop stop-color="#271D09" offset=".8588"/>
				</linearGradient>
				<path d="m25.8-11.45c0-0.8-0.183-1.2-0.55-1.2-0.4 0-0.6 0.4-0.6 1.2s0.2 1.2 0.6 1.2c0.367 0 0.55-0.4 0.55-1.2z" fill="url(#z)"/>
					<radialGradient id="aa" cx="23.25" cy="-15.101" r="1.3125" gradientTransform="matrix(1 0 0 -2.181 0 -48.033)" gradientUnits="userSpaceOnUse">
					<stop stop-opacity=".3765" offset="0"/>
					<stop stop-opacity="0" offset=".8667"/>
				</radialGradient>
				<path d="m22.3-17.2c-0.233 0.533-0.366 1.183-0.4 1.95l2.4 1.7c0.167-0.5 0.25-1.017 0.25-1.55 0-0.8-0.133-1.483-0.4-2.05-0.233-0.566-0.533-0.85-0.9-0.85s-0.684 0.266-0.95 0.8z" fill="url(#aa)"/>
						<linearGradient id="ab" x1="521.96" x2="524.44" y1="-16807" y2="-16807" gradientTransform="matrix(-.0605 -.9982 .9982 -.0605 16832 -509.58)" gradientUnits="userSpaceOnUse">
						<stop stop-color="#D39825" offset="0"/>
						<stop stop-color="#CF9524" offset=".1765"/>
						<stop stop-color="#C48D22" offset=".3647"/>
						<stop stop-color="#B07F1F" offset=".5608"/>
						<stop stop-color="#956B1A" offset=".7608"/>
						<stop stop-color="#725214" offset=".9608"/>
						<stop stop-color="#6B4D12" offset="1"/>
					</linearGradient>
					<path d="m22.7-14.101c0.267 0.3 0.533 0.467 0.8 0.5 0.7 0.034 1.316-0.267 1.85-0.9 0.5-0.6 0.617-0.95 0.35-1.05-0.267-0.167-0.817-0.233-1.65-0.2-0.933 0-1.467 0.184-1.6 0.55-0.134 0.367-0.05 0.734 0.25 1.1z" fill="url(#ab)"/>
						<linearGradient id="ac" x1="470.01" x2="471.39" y1="-16760" y2="-16760" gradientTransform="matrix(-.0545 -.9985 .9985 -.0545 16785 -457.44)" gradientUnits="userSpaceOnUse">
						<stop stop-color="#F1CC7D" offset="0"/>
						<stop stop-color="#D39825" offset=".8588"/>
					</linearGradient>
					<path d="m22.95-14.3c-0.033 0.367 0.217 0.55 0.75 0.55 0.4 0.034 0.783-0.133 1.15-0.5 0.4-0.333 0.533-0.566 0.4-0.7-0.066-0.067-0.3-0.067-0.7 0-0.533 0.133-0.833 0.2-0.9 0.2-0.433 0-0.667 0.149-0.7 0.45z" fill="url(#ac)"/>
			<path d="m16.7-7.601c0.3 0.034 1.6 0.65 3.9 1.85 1.433 0.767 2.983 1.667 4.65 2.7-0.066-0.4-1.434-1.333-4.1-2.8-2.7-1.5-4.083-2.417-4.15-2.75-0.1-0.366-0.1-4.517 0-12.45-0.066-1.7-0.3-2.75-0.7-3.15l0.15 0.6c0.1 0.267 0.133 2.267 0.1 6-0.033 3.6-0.083 5.967-0.15 7.1-0.067 1.167-0.117 1.8-0.15 1.9-0.066 0.201-0.25 0.334-0.55 0.401-0.367 0.1-3.217 0.417-8.55 0.95-0.8 0.066-2.05 0.25-3.75 0.55l-2.3 0.45 7.55-0.8c1.4-0.167 3.017-0.317 4.85-0.45s2.9-0.167 3.2-0.101z" fill="#F8E87C"/>
					<radialGradient id="ad" cx="17.3" cy="-3.8003" r="6.1625" gradientTransform="matrix(1 0 0 -.3448 0 -5.1113)" gradientUnits="userSpaceOnUse">
					<stop stop-opacity=".3765" offset="0"/>
					<stop stop-opacity="0" offset=".8667"/>
				</radialGradient>
				<path d="m17.25-5.601l-0.1-0.1-0.45-0.199-0.05-0.05c-1.567 0.066-2.867 0.3-3.9 0.7-1.066 0.434-1.6 0.917-1.6 1.45 0 0.566 0.6 1.066 1.8 1.5 1.2 0.4 2.65 0.6 4.35 0.6 1.5 0 2.833-0.167 4-0.5l-0.1-0.15c-0.167-0.533-0.367-1.017-0.6-1.45-1.467-0.801-2.583-1.4-3.35-1.801z" fill="url(#ad)"/>
				<path d="m15.95-5.4l-1.1 1.55c-0.167 0.267-0.233 0.567-0.2 0.9 0 0.366 0.117 0.633 0.35 0.8 0.367 0.367 0.75 0.483 1.15 0.35l0.35-0.1c-0.1 0.233-0.184 0.483-0.25 0.75-0.1 0.533-0.083 0.867 0.05 1 0.5 0.434 1.083 0.65 1.75 0.65 0.367 0 0.684-0.15 0.95-0.45 0.2-0.267 0.3-0.517 0.3-0.75 7e-3 -0.042 7e-3 -0.084 0-0.125 0.119 0.155 0.236 0.246 0.35 0.275 0.7 0.1 1.15-0.083 1.35-0.55 0.2-0.466 0.1-1.15-0.3-2.05 0.3-0.2-0.233-0.667-1.6-1.4-1.167-0.6-1.8-0.917-1.9-0.95l-1.25 0.1z" fill="#F8E87C"/>
				<path d="m16.6-0.3c0.5 0.433 1.083 0.65 1.75 0.65 0.367 0 0.65-0.184 0.85-0.55 0.133-0.267 0.2-0.534 0.2-0.8v-0.3l0.15 0.25c0.134 0.2 0.267 0.316 0.4 0.35 0.7 0.1 1.15-0.083 1.35-0.55s0.1-1.15-0.3-2.05c0.267-0.2-0.267-0.667-1.6-1.4-0.167-0.1-0.55-0.317-1.15-0.65-0.3-0.167-0.55-0.267-0.75-0.3l-1.55 0.25c-0.3 0.633-0.583 1.1-0.85 1.4-0.167 0.233-0.233 0.534-0.2 0.9 0.034 0.367 0.15 0.65 0.35 0.85 0.434 0.333 0.833 0.434 1.2 0.3l0.3-0.1c-0.066 0.233-0.133 0.483-0.2 0.75-0.1 0.533-0.083 0.866 0.05 1z" fill="#EFD433"/>
					<path d="m16.65-2.05l-0.05 0.05 0.15-0.05c-0.233 0.667-0.316 1.167-0.25 1.5 0-0.067 0.066-0.1 0.2-0.1 0.2-0.066 0.333-0.083 0.4-0.05l0.2 0.05c0.2-0.367 0.35-0.783 0.45-1.25l0.15-0.6c-0.1-0.033-0.233 0-0.4 0.1-0.2 0.133-0.333 0.2-0.4 0.2l-0.45 0.15z" fill="#DCC22F"/>
					<path d="m16.2-3.75c-0.167 0.4-0.15 0.684 0.05 0.85l1.75-1.8-1.45 0.3 0.25-0.85c-0.2-0.066-0.4-0.066-0.6 0l-0.45 0.25-0.65 1v0.05l0.35-0.4 0.35-0.15c0.3-0.066 0.467-0.017 0.5 0.15 0.033 0.1 0 0.3-0.1 0.6z" fill="#DCC22F"/>
					<path d="m16.8-5.25l-0.25 0.85 2.35-0.45-0.25-0.25c-0.466-0.267-0.85-0.45-1.15-0.55l-1.55 0.25-0.2 0.4 0.45-0.25c0.2-0.067 0.4-0.067 0.6 0z" fill="#A89423"/>
				<path d="m16.8-4.75c-0.333 0.467-0.533 0.85-0.6 1.15-0.134 0.434-0.117 0.817 0.05 1.15 0.133 0.3 0.333 0.45 0.6 0.45 0.333-0.033 0.567-0.083 0.7-0.15-0.1 0.233-0.2 0.483-0.3 0.75-0.167 0.533-0.184 0.883-0.05 1.05 0.2 0.233 0.45 0.4 0.75 0.5 0.366 0.133 0.65 0.15 0.85 0.05l0.2-0.2c0.133-0.267 0.2-0.533 0.2-0.8v-0.45c0-0.233 0.033-0.383 0.1-0.45l0.3 0.5c0.233 0.366 0.483 0.566 0.75 0.6 0.233 0 0.4-0.033 0.5-0.1l0.25-0.35c0.2-0.467 0.1-1.167-0.3-2.1 0.3-0.2-0.233-0.65-1.6-1.35-0.233-0.133-0.517-0.316-0.85-0.55-0.166-0.134-0.35-0.217-0.55-0.25l-0.3-0.35c-0.267 0.333-0.5 0.633-0.7 0.9z" fill="#F8E87C"/>
				<path d="m16.35-3.55c-0.1 0.966 0.133 1.417 0.7 1.35 0.333-0.034 0.567-0.083 0.7-0.15-0.1 0.233-0.2 0.483-0.3 0.75-0.2 0.567-0.233 0.917-0.1 1.05 0.233 0.233 0.5 0.4 0.8 0.5 0.367 0.133 0.65 0.15 0.85 0.05l0.15-0.15c0.166-0.334 0.25-0.617 0.25-0.85v-0.4c0-0.267 0.034-0.417 0.1-0.45l0.25 0.5c0.233 0.333 0.5 0.517 0.8 0.55 0.167 0.066 0.317 0.033 0.45-0.1l0.3-0.35c0.2-0.467 0.1-1.15-0.3-2.05 0.267-0.2-0.267-0.667-1.6-1.4-0.167-0.1-0.55-0.317-1.15-0.65-0.3-0.167-0.55-0.267-0.75-0.3h-0.1c-0.633 0.866-0.983 1.566-1.05 2.1z" fill="#C8AF21"/>
	</g>
</symbol>
<symbol id="as" viewBox="-0.385 -30.361 32.199 30.91">
			<use transform="translate(-.3999 .0498)" x="0.015" y="-30.41" width="32.199" height="30.91" xlink:href="#at"/>
</symbol>
<symbol id="at" viewBox="0.015 -30.41 32.199 30.91">
			<use transform="translate(0 -7.9502)" x="0.015" y="-8.472" width="10.185" height="8.474" xlink:href="#au"/>
			<use transform="translate(6)" x="0.4" y="-30.41" width="25.814" height="30.91" xlink:href="#ar"/>
</symbol>
<symbol id="au" viewBox="0.015 -8.472 10.185 8.474">
			<use transform="translate(.7002)" x="0.015" y="-8.126" width="4.537" height="8.127" xlink:href="#av"/>
			<use transform="translate(.2002 -.2002)" x="0.016" y="-8.173" width="4.573" height="8.174" xlink:href="#ax"/>
			<use transform="translate(0 -.2998)" x="0.015" y="-8.172" width="4.573" height="8.174" xlink:href="#aw"/>
				<linearGradient id="ae" x1="1517.5" x2="1518.9" y1="-17618" y2="-17618" gradientTransform="matrix(-.1705 -.9854 .9854 -.1705 17627 -1514.1)" gradientUnits="userSpaceOnUse">
				<stop stop-color="#8F8F8F" offset="0"/>
				<stop stop-color="#E8E8E8" offset=".2275"/>
				<stop stop-color="#696969" offset="1"/>
			</linearGradient>
			<path d="m10.2-6.3l-5.4 0.8c-0.3-0.033-0.449 0.134-0.449 0.5 0 0.233 0.083 0.4 0.25 0.5 0.066 0.066 0.133 0.1 0.2 0.1l5.4-0.8v-1.1z" clip-rule="evenodd" fill="url(#ae)" fill-rule="evenodd"/>
</symbol>
<symbol id="av" viewBox="0.015 -8.126 4.537 8.127">
				<linearGradient id="af" x1="8.21" x2="15.035" y1="-16349" y2="-16349" gradientTransform="matrix(.00014652 -1 1 -.001 16351 -8.1758)" gradientUnits="userSpaceOnUse">
				<stop stop-color="#8F8F8F" offset="0"/>
				<stop stop-color="#E8E8E8" offset=".2275"/>
				<stop stop-color="#696969" offset="1"/>
			</linearGradient>
			<path d="m3.5-5.899c0.066 0.6-0.083 0.983-0.45 1.15l-0.45 0.049c-0.233 0-0.433-0.033-0.6-0.1-0.533-0.167-0.833-0.533-0.9-1.1-0.034-0.5 0.1-0.85 0.4-1.05 0.434-0.233 0.867-0.233 1.3 0 0.4 0.234 0.634 0.584 0.7 1.051zm-3.45 4.649c0.1 0.8 0.5 1.216 1.2 1.25 1.367 0.033 2.333-0.633 2.9-2 0.5-1.233 0.534-2.05 0.1-2.45 0.434-0.533 0.4-1.333-0.1-2.4-0.567-1.167-1.533-1.533-2.9-1.1-0.7 0.233-1.1 0.767-1.2 1.6-0.133 0.867 0.117 1.533 0.75 2l0.45 0.35-0.45 0.45c-0.633 0.7-0.883 1.467-0.75 2.3zm3.45-1.5c-0.066 0.5-0.3 0.917-0.7 1.25-0.433 0.4-0.866 0.534-1.3 0.4-0.3-0.133-0.434-0.467-0.4-1 0.067-0.566 0.367-1.016 0.9-1.35l0.6-0.3 0.45-0.05c0.367 0.034 0.516 0.384 0.45 1.05z" clip-rule="evenodd" fill="url(#af)" fill-rule="evenodd"/>
</symbol>
<symbol id="aw" viewBox="0.015 -8.172 4.573 8.174">
			<linearGradient id="ag" x1="-1919.9" x2="-1910.7" y1="-13813" y2="-13813" gradientTransform="matrix(.2726 -.9621 .9621 .2726 13814 1918.9)" gradientUnits="userSpaceOnUse">
			<stop stop-color="#E8E8E8" offset="0"/>
			<stop stop-color="#878787" offset="1"/>
		</linearGradient>
		<path d="m2.05-4.8c-0.566-0.133-0.867-0.483-0.9-1.05-0.033-0.533 0.1-0.9 0.4-1.1 0.4-0.267 0.817-0.267 1.25 0 0.4 0.233 0.633 0.583 0.7 1.05 0.133 0.633 0 1-0.4 1.1l-0.45 0.1-0.6-0.1zm-2 3.55c0.133 0.8 0.55 1.217 1.25 1.25 1.367 0.033 2.333-0.633 2.9-2 0.5-1.233 0.517-2.05 0.05-2.45 0.467-0.5 0.45-1.3-0.05-2.4-0.567-1.2-1.533-1.583-2.9-1.15-0.7 0.267-1.117 0.817-1.25 1.65-0.133 0.867 0.117 1.533 0.75 2l0.5 0.35-0.5 0.45c-0.633 0.7-0.883 1.467-0.75 2.3zm3.45-1.5c-0.067 0.5-0.3 0.917-0.7 1.25-0.433 0.4-0.85 0.533-1.25 0.4-0.3-0.133-0.433-0.467-0.4-1 0.033-0.6 0.333-1.05 0.9-1.35l0.6-0.3 0.45-0.05c0.367 0.033 0.5 0.383 0.4 1.05z" clip-rule="evenodd" fill="url(#ag)" fill-rule="evenodd"/>
</symbol>
<symbol id="ax" viewBox="0.016 -8.173 4.573 8.174">
			<linearGradient id="ah" x1="-1919.9" x2="-1910.7" y1="-13813" y2="-13813" gradientTransform="matrix(.2726 -.9621 .9621 .2726 13814 1918.9)" gradientUnits="userSpaceOnUse">
			<stop stop-color="#E8E8E8" offset="0"/>
			<stop stop-color="#EDEDED" offset="1"/>
		</linearGradient>
		<path d="m2.05-4.8c-0.567-0.133-0.867-0.483-0.9-1.05-0.033-0.533 0.1-0.9 0.4-1.1 0.4-0.267 0.817-0.267 1.25 0 0.4 0.233 0.634 0.583 0.7 1.05 0.1 0.6-0.034 0.967-0.4 1.1l-0.45 0.1-0.6-0.1zm-2 3.55c0.134 0.8 0.551 1.216 1.25 1.25 1.367 0.034 2.333-0.633 2.9-2 0.5-1.233 0.517-2.05 0.05-2.45 0.466-0.5 0.45-1.3-0.05-2.4-0.566-1.2-1.533-1.584-2.9-1.15-0.7 0.267-1.117 0.817-1.25 1.65-0.133 0.867 0.117 1.534 0.75 2l0.5 0.35-0.5 0.45c-0.633 0.699-0.883 1.466-0.75 2.3zm1.5 0.149c-0.3-0.133-0.433-0.466-0.4-1 0.033-0.6 0.333-1.05 0.9-1.35l0.6-0.3 0.45-0.05c0.366 0.033 0.5 0.383 0.4 1.05-0.066 0.501-0.3 0.917-0.7 1.251-0.433 0.399-0.85 0.533-1.25 0.399z" clip-rule="evenodd" fill="url(#ah)" fill-rule="evenodd"/>
</symbol>
<use transform="matrix(1 0 0 -1 .3999 .5498)" x="-0.385" y="-30.361" width="32.199" height="30.91" xlink:href="#as"/>
</svg>
